<svg xmlns="http://www.w3.org/2000/svg" viewBox="0 0 308.85 80"><defs><style>.cls-1{fill:#73b842;}.cls-2{fill:#1d1d1b;}.cls-3{fill:#fff;}</style></defs><title>Asset 5</title><g id="Layer_2" data-name="Layer 2"><g id="Layer_1-2" data-name="Layer 1"><rect class="cls-1" x="4.99" y="5.07" width="298.87" height="69.93"/><polygon class="cls-2" points="303.85 75 5 75 5 80 308.85 80 308.85 5.07 303.85 5.07 303.85 75"/><polygon class="cls-2" points="5 5 303.83 5 303.83 0 0 0 0 75 5 75 5 5"/><path class="cls-2" d="M262.88,27.26V23.8H235.29v6.84h0V27.26h-3.45V23.8H204.25v3.46h-3.44V23.8H176.68v3.46h-3.46V23.8H145.63v3.46h-3.45V23.8H118.06v3.46h-3.47V23.8h-31v3.46H80.11V23.8H52.53v31H56v3.41H69.74V54.76H73.2v3.41H87V54.76H87v3.41h31V51.39h.07v3.37h3.44v3.41h24.13V54.76H149V34.1h3.51V54.76H156v3.41h13.75V37.56h3.47v17.2h3.46v3.41h13.75V54.76h3.47v3.41h13.75V54.76h.07v3.41h13.75V54.76h3.46v3.41h13.75V34.1h3.52V54.76h3.46v3.41h13.75V37.56h6.91V27.26ZM114.6,44.48v3.44h0V37.56h0v6.92Z"/><polygon class="cls-3" points="73.2 47.92 73.2 44.48 73.2 41.01 69.74 41.01 66.28 41.01 62.9 41.01 62.9 44.48 62.9 47.92 62.9 51.38 59.44 51.38 55.99 51.38 55.99 47.92 55.99 44.48 55.99 41.01 55.99 37.56 55.99 34.1 55.99 30.64 55.99 27.26 59.44 27.26 62.9 27.26 66.28 27.26 69.74 27.26 73.2 27.26 76.65 27.26 76.65 30.64 80.11 30.64 80.11 34.1 80.11 37.56 76.65 37.56 76.65 41.01 80.11 41.01 80.11 44.48 80.11 47.92 80.11 51.38 76.65 51.38 73.2 51.38 73.2 47.92"/><polygon class="cls-3" points="87.02 47.92 87.02 44.48 87.02 41.01 87.02 37.56 87.02 34.1 87.02 30.64 87.02 27.26 90.47 27.26 93.93 27.26 97.31 27.26 100.78 27.26 104.24 27.26 107.68 27.26 111.15 27.26 111.15 30.64 107.68 30.64 104.24 30.64 100.78 30.64 97.31 30.64 93.93 30.64 93.93 34.1 93.93 37.56 97.31 37.56 100.78 37.56 104.24 37.56 107.68 37.56 107.68 41.01 104.24 41.01 100.78 41.01 97.31 41.01 93.93 41.01 93.93 44.48 93.93 47.92 97.31 47.92 100.78 47.92 104.24 47.92 107.68 47.92 111.15 47.92 111.15 51.38 107.68 51.38 104.24 51.38 100.78 51.38 97.31 51.38 93.93 51.38 90.47 51.38 87.02 51.38 87.02 47.92"/><polygon class="cls-3" points="118.06 47.92 118.06 44.48 121.5 44.48 124.97 44.48 124.97 47.92 128.35 47.92 131.81 47.92 135.27 47.92 135.27 44.48 135.27 41.01 131.81 41.01 128.35 41.01 124.97 41.01 121.5 41.01 121.5 37.56 118.06 37.56 118.06 34.1 118.06 30.64 121.5 30.64 121.5 27.26 124.97 27.26 128.35 27.26 131.81 27.26 135.27 27.26 138.72 27.26 138.72 30.64 142.18 30.64 142.18 34.1 138.72 34.1 135.27 34.1 135.27 30.64 131.81 30.64 128.35 30.64 124.97 30.64 124.97 34.1 124.97 37.56 128.35 37.56 131.81 37.56 135.27 37.56 138.72 37.56 138.72 41.01 142.18 41.01 142.18 44.48 142.18 47.92 138.72 47.92 138.72 51.38 135.27 51.38 131.81 51.38 128.35 51.38 124.97 51.38 121.5 51.38 121.5 47.92 118.06 47.92"/><polygon class="cls-3" points="156 47.92 156 44.48 156 41.01 156 37.56 156 34.1 156 30.64 152.54 30.64 149.09 30.64 149.09 27.26 152.54 27.26 156 27.26 159.38 27.26 162.84 27.26 166.31 27.26 169.75 27.26 169.75 30.64 166.31 30.64 162.84 30.64 162.84 34.1 162.84 37.56 162.84 41.01 162.84 44.48 162.84 47.92 162.84 51.38 159.38 51.38 156 51.38 156 47.92"/><polygon class="cls-3" points="193.9 47.92 193.9 44.48 190.43 44.48 186.97 44.48 183.59 44.48 183.59 47.92 183.59 51.38 180.13 51.38 176.68 51.38 176.68 47.92 176.68 44.48 176.68 41.01 176.68 37.56 176.68 34.1 176.68 30.64 180.13 30.64 180.13 27.26 183.59 27.26 186.97 27.26 190.43 27.26 193.9 27.26 197.34 27.26 197.34 30.64 200.81 30.64 200.81 34.1 200.81 37.56 200.81 41.01 200.81 44.48 200.81 47.92 200.81 51.38 197.34 51.38 193.9 51.38 193.9 47.92"/><polygon class="cls-3" points="224.93 47.92 224.93 44.48 224.93 41.01 221.47 41.01 218 41.01 214.63 41.01 214.63 44.48 214.63 47.92 214.63 51.38 211.16 51.38 207.72 51.38 207.72 47.92 207.72 44.48 207.72 41.01 207.72 37.56 207.72 34.1 207.72 30.64 207.72 27.26 211.16 27.26 214.63 27.26 218 27.26 221.47 27.26 224.93 27.26 228.38 27.26 228.38 30.64 231.84 30.64 231.84 34.1 231.84 37.56 228.38 37.56 228.38 41.01 231.84 41.01 231.84 44.48 231.84 47.92 231.84 51.38 228.38 51.38 224.93 51.38 224.93 47.92"/><polygon class="cls-3" points="245.66 47.92 245.66 44.48 245.66 41.01 245.66 37.56 245.66 34.1 245.66 30.64 242.2 30.64 238.75 30.64 238.75 27.26 242.2 27.26 245.66 27.26 249.04 27.26 252.5 27.26 255.97 27.26 259.41 27.26 259.41 30.64 255.97 30.64 252.5 30.64 252.5 34.1 252.5 37.56 252.5 41.01 252.5 44.48 252.5 47.92 252.5 51.38 249.04 51.38 245.66 51.38 245.66 47.92"/><polygon class="cls-2" points="66.28 30.64 62.9 30.64 62.9 34.1 62.9 37.56 66.28 37.56 69.74 37.56 73.2 37.56 73.2 34.1 73.2 30.64 69.74 30.64 66.28 30.64"/><polygon class="cls-2" points="186.97 30.64 183.59 30.64 183.59 34.1 183.59 37.56 183.59 41.01 186.97 41.01 190.43 41.01 193.9 41.01 193.9 37.56 193.9 34.1 193.9 30.64 190.43 30.64 186.97 30.64"/><polygon class="cls-2" points="218 30.64 214.63 30.64 214.63 34.1 214.63 37.56 218 37.56 221.47 37.56 224.93 37.56 224.93 34.1 224.93 30.64 221.47 30.64 218 30.64"/><polygon class="cls-2" points="66.28 30.64 62.9 30.64 62.9 34.1 62.9 37.56 66.28 37.56 69.74 37.56 73.2 37.56 73.2 34.1 73.2 30.64 69.74 30.64 66.28 30.64"/><polygon class="cls-2" points="186.97 30.64 183.59 30.64 183.59 34.1 183.59 37.56 183.59 41.01 186.97 41.01 190.43 41.01 193.9 41.01 193.9 37.56 193.9 34.1 193.9 30.64 190.43 30.64 186.97 30.64"/><polygon class="cls-2" points="218 30.64 214.63 30.64 214.63 34.1 214.63 37.56 218 37.56 221.47 37.56 224.93 37.56 224.93 34.1 224.93 30.64 221.47 30.64 218 30.64"/><rect class="cls-2" x="303.83" y="5" width="0.03" height="0.07"/></g></g></svg>